# xmcd
#
# Track frame offsets:
# 150
# 17297
# 23027
# 38687
# 44887
# 57540
# 66248
# 81075
# 92020
# 105175
# 116823
# 130850
# 137353
# 150337
# 160308
# 169985
# 178336
# 195702
# 205809
# 219865
# 231492
# 243869
# 256276
# 269920
# 287622
# 297814
#
# Disc length: 4154 seconds
#
#
# Revision: 0
# Processed by: cddbd v1.5.1PL0 Copyright (c) Steve Scherf et al.
# Submitted via: FreeRIP 2.93 
#
DISCID=7510381a
DTITLE=Various Artist - Piesne nasich
DYEAR=1900
DGENRE=
TTITLE0=Nezapominejte kamaradi
TTITLE1=Ked sa vecer zaseri
TTITLE2=Taboraku dym
TTITLE3=Spi syncok
TTITLE4=Biele ticho
TTITLE5=Hoj kamarati
TTITLE6=Blizzard severu
TTITLE7=Zabudni
TTITLE8=Zelena paseka
TTITLE9=Dobry vecer
TTITLE10=Spomienka
TTITLE11=Slepicka
TTITLE12=Tyrolak
TTITLE13=Domov kamaratov
TTITLE14=Cas leti
TTITLE15=Dve sestry
TTITLE16=Jar
TTITLE17=Pochodova
TTITLE18=Vietor
TTITLE19=Cakam
TTITLE20=Nech sumia lesy
TTITLE21=Zapadnuty kut
TTITLE22=Udolie spomienok
TTITLE23=Ohio
TTITLE24=Belasa harmonika
TTITLE25=Laredo
EXTD=
EXTT0=Uncas
EXTT1=Uncas
EXTT2=Druhy Dych
EXTT3=Uncas
EXTT4=Utah
EXTT5=Blizzard
EXTT6=Blizzard
EXTT7=Utah
EXTT8=Utah
EXTT9=Udolia smrti
EXTT10=Mali bobri
EXTT11=Mali bobri
EXTT12=Mali bobri
EXTT13=Mali bobri
EXTT14=Mali bobri
EXTT15=Mali bobri
EXTT16=Mali bobri
EXTT17=Mali bobri
EXTT18=Mali bobri
EXTT19=Kalumet
EXTT20=Kalumet
EXTT21=Kalumet
EXTT22=Kalumet
EXTT23=Nipigon
EXTT24=Nipigon
EXTT25=Nipigon
PLAYORDER=
